HIERARCHY
ROOT root
{
	OFFSET 0.000000 0.000000 0.000000
	CHANNELS 6 Xposition Yposition Zposition Zrotation Yrotation Xrotation
	JOINT lhip
	{
		OFFSET 0.058581 -0.082280 -0.017664
		CHANNELS 3 Zrotation Yrotation Xrotation
		JOINT lknee
		{
			OFFSET 0.043451 -0.386469 0.008037
			CHANNELS 3 Zrotation Yrotation Xrotation
			JOINT lankle
			{
				OFFSET -0.014790 -0.426874 -0.037428
				CHANNELS 3 Zrotation Yrotation Xrotation
				JOINT ltoe
				{
					OFFSET 0.041054 -0.060286 0.122042
					CHANNELS 3 Zrotation Yrotation Xrotation
					End Site
					{
						OFFSET 0.000000 0.000000 0.000000
					}
				}
			}
		}
	}
	JOINT rhip
	{
		OFFSET -0.060310 -0.090513 -0.013543
		CHANNELS 3 Zrotation Yrotation Xrotation
		JOINT rknee
		{
			OFFSET -0.043257 -0.383688 -0.004843
			CHANNELS 3 Zrotation Yrotation Xrotation
			JOINT rankle
			{
				OFFSET 0.019056 -0.420046 -0.034562
				CHANNELS 3 Zrotation Yrotation Xrotation
				JOINT rtoe
				{
					OFFSET -0.034840 -0.062106 0.130323
					CHANNELS 3 Zrotation Yrotation Xrotation
					End Site
					{
						OFFSET 0.000000 0.000000 0.000000
					}
				}
			}
		}
	}
	JOINT lowerback
	{
		OFFSET 0.004439 0.124404 -0.038385
		CHANNELS 3 Zrotation Yrotation Xrotation
		JOINT upperback
		{
			OFFSET 0.004488 0.137956 0.026820
			CHANNELS 3 Zrotation Yrotation Xrotation
			JOINT chest
			{
				OFFSET -0.002265 0.056032 0.002855
				CHANNELS 3 Zrotation Yrotation Xrotation
				JOINT lowerneck
				{
					OFFSET -0.013390 0.211636 -0.033468
					CHANNELS 3 Zrotation Yrotation Xrotation
					JOINT upperneck
					{
						OFFSET 0.010113 0.088937 0.050410
						CHANNELS 3 Zrotation Yrotation Xrotation
						End Site
						{
							OFFSET 0.000000 0.000000 0.000000
						}
					}
				}
				JOINT lclavicle
				{
					OFFSET 0.071702 0.114000 -0.018898
					CHANNELS 3 Zrotation Yrotation Xrotation
					JOINT lshoulder
					{
						OFFSET 0.122921 0.045205 -0.019046
						CHANNELS 3 Zrotation Yrotation Xrotation
						JOINT lelbow
						{
							OFFSET 0.255332 -0.015649 -0.022946
							CHANNELS 3 Zrotation Yrotation Xrotation
							JOINT lwrist
							{
								OFFSET 0.265709 0.012698 -0.007375
								CHANNELS 3 Zrotation Yrotation Xrotation
								End Site
								{
									OFFSET 0.000000 0.000000 0.000000
								}
							}
						}
					}
				}
				JOINT rclavicle
				{
					OFFSET -0.082954 0.112472 -0.023707
					CHANNELS 3 Zrotation Yrotation Xrotation
					JOINT rshoulder
					{
						OFFSET -0.113228 0.046853 -0.008472
						CHANNELS 3 Zrotation Yrotation Xrotation
						JOINT relbow
						{
							OFFSET -0.260127 -0.014369 -0.031269
							CHANNELS 3 Zrotation Yrotation Xrotation
							JOINT rwrist
							{
								OFFSET -0.269108 0.006794 -0.006027
								CHANNELS 3 Zrotation Yrotation Xrotation
								End Site
								{
									OFFSET 0.000000 0.000000 0.000000
								}
							}
						}
					}
				}
			}
		}
	}
}
MOTION
Frames: 5
Frame Time: 0.033333
-0.142955 0.284043 0.980203 90.939839 1.123727 86.045303 5.130735 -0.120877 -12.407667 -6.562534 1.185804 24.722393 2.427656 11.673581 -11.420604 0.000000 -0.000000 0.000000 -3.650478 -0.310166 -14.541178 3.902394 -1.434616 28.135760 2.290626 -3.452898 -11.905258 0.000000 -0.000000 0.000000 -0.485694 2.017449 16.824914 2.808474 -1.194062 1.178305 0.031051 -0.352710 4.199523 2.024614 -0.703284 8.692825 0.045247 -7.190961 17.847214 -22.597372 0.843502 3.229471 -64.242798 -9.489295 13.334451 3.636532 -16.850702 4.597649 4.965516 -4.680084 -15.745864 24.894319 4.506876 1.843446 55.539112 14.112135 12.931992 -12.712339 16.149595 -4.679144 0.269782 3.087034 -5.297441 
-0.139333 0.285024 0.983151 90.731248 1.195525 86.508697 5.185287 0.033371 -11.881741 -6.560638 1.269202 23.343986 2.179559 11.444909 -11.263149 0.000000 -0.000000 0.000000 -3.649802 -0.411778 -14.003472 3.903290 -1.428444 26.555090 2.468524 -3.169828 -11.276198 0.000000 -0.000000 0.000000 -0.430476 2.032484 16.360719 2.769290 -1.200302 1.259045 0.053979 -0.303852 4.064651 1.979088 -0.667483 8.565891 0.085359 -7.153381 17.706072 -22.509359 0.698490 3.200073 -64.408199 -9.815935 13.527445 3.695874 -17.831291 4.050386 4.870797 -4.774750 -16.730660 24.724113 4.650506 1.863509 55.660228 14.445985 13.120398 -12.939345 16.986736 -5.041784 0.102316 3.224554 -5.751401 
-0.135658 0.285753 0.985722 90.527920 1.284136 86.896722 5.285808 0.257832 -11.323501 -6.530196 1.446448 22.032883 1.990505 11.138448 -10.946807 0.000000 -0.000000 0.000000 -3.636099 -0.515429 -13.410203 3.924903 -1.446057 25.031398 2.649767 -2.869693 -10.670537 0.000000 -0.000000 0.000000 -0.372027 1.980190 15.897871 2.729717 -1.279226 1.306333 0.060003 -0.286604 3.912741 1.902901 -0.550357 8.570609 0.048524 -7.026338 17.738492 -22.400856 0.507287 3.187373 -64.578259 -10.067246 13.751630 3.698825 -18.458935 4.026707 4.907001 -4.888808 -16.954035 24.576514 4.857772 1.860423 55.917322 14.797047 13.379054 -12.977409 17.436500 -4.967173 0.043478 3.315769 -5.818032 
-0.131991 0.286316 0.987854 90.375518 1.363291 87.162764 5.309911 0.463854 -10.770644 -6.392913 1.570933 20.957449 1.871395 10.877017 -10.592582 0.000000 -0.000000 0.000000 -3.595114 -0.614176 -12.770767 3.897499 -1.468873 23.702614 2.839193 -2.657215 -10.157187 0.000000 -0.000000 0.000000 -0.332196 1.923935 15.510857 2.717680 -1.420501 1.299264 0.072498 -0.319487 3.803206 1.804878 -0.419249 8.689376 -0.043486 -6.905402 17.805557 -22.268859 0.283215 3.143855 -64.798800 -10.330807 13.954778 3.656378 -18.422863 4.499119 4.649462 -5.031787 -16.624447 24.446892 4.983743 1.784111 56.316472 15.079558 13.633399 -12.970407 17.736410 -4.751642 0.217205 3.301833 -5.927956 
-0.128364 0.286775 0.989452 90.246374 1.425057 87.309947 5.275520 0.617280 -10.227038 -6.195715 1.649098 20.112195 1.788859 10.685910 -10.303283 0.000000 -0.000000 0.000000 -3.528942 -0.644199 -12.125774 3.823196 -1.494342 22.592735 2.956842 -2.557882 -9.775461 0.000000 -0.000000 0.000000 -0.322935 1.864192 15.167398 2.727774 -1.580732 1.341156 0.104462 -0.380143 3.723078 1.657385 -0.328468 8.880235 -0.158454 -6.748561 17.807149 -22.118958 0.060044 3.161366 -65.119868 -10.557101 14.091151 3.793158 -18.310494 4.854341 4.686872 -5.030683 -16.157283 24.321697 5.069698 1.735622 56.817874 15.234221 13.868393 -12.989037 18.039370 -4.615832 0.208178 3.284824 -6.205168 
